<svg width="79" height="57" viewBox="0 0 79 57" fill="none" xmlns="http://www.w3.org/2000/svg">
<g filter="url(#filter0_d_45_19)">
<path d="M4 47.6849C4 46.8246 4.12694 46.104 4.38083 45.5177C4.5672 45.0876 4.82649 44.7013 5.15331 44.3588C5.48012 44.0164 5.83935 43.7643 6.22559 43.5972C6.74417 43.3753 7.34108 43.2629 8.01902 43.2629C9.24525 43.2629 10.223 43.6492 10.9604 44.4218C11.695 45.1944 12.0624 46.2684 12.0624 47.6438C12.0624 49.0081 11.6977 50.0739 10.9685 50.8438C10.2392 51.6136 9.26146 51.9999 8.04333 51.9999C6.80629 51.9999 5.82314 51.6164 5.09389 50.8492C4.36463 50.0849 4 49.0301 4 47.6849ZM5.72861 47.6273C5.72861 48.5835 5.94739 49.3068 6.38224 49.7999C6.8171 50.2931 7.37079 50.5397 8.04063 50.5397C8.71047 50.5397 9.26146 50.2931 9.69361 49.8054C10.1231 49.315 10.3364 48.5807 10.3364 47.6027C10.3364 46.6355 10.1285 45.9123 9.70712 45.4383C9.28847 44.9616 8.73477 44.7232 8.04063 44.7232C7.34918 44.7232 6.79009 44.9643 6.36604 45.4465C5.94199 45.9287 5.72861 46.6547 5.72861 47.6273ZM14.0205 43.4191H15.7032V47.9862C15.7032 48.7123 15.7248 49.1807 15.7654 49.3944C15.8356 49.7397 16.0057 50.0191 16.2731 50.2273C16.5432 50.4383 16.9079 50.5424 17.3724 50.5424C17.8424 50.5424 18.1989 50.4438 18.4393 50.2465C18.6797 50.0492 18.8228 49.8081 18.8715 49.5177C18.9201 49.2301 18.9444 48.7534 18.9444 48.0849V43.4191H20.6271V47.852C20.6271 48.8657 20.5839 49.5807 20.492 49.9972C20.4002 50.4164 20.2354 50.767 19.9924 51.0575C19.7493 51.3451 19.4252 51.5725 19.02 51.7451C18.6122 51.915 18.0828 52.0027 17.4264 52.0027C16.6351 52.0027 16.0355 51.9095 15.6276 51.7232C15.2198 51.5369 14.8957 51.2958 14.658 50.9972C14.4203 50.6986 14.2663 50.389 14.1907 50.0602C14.08 49.578 14.0259 48.8629 14.0259 47.9205V43.4191H14.0205ZM24.9135 51.8465V44.8438H22.4529V43.4191H29.0433V44.8438H26.5935V51.8465H24.9135ZM30.7557 51.8465V43.4191H33.2757L34.7639 49.167L36.2359 43.4191H38.7613V51.8465H37.2055L37.2001 45.2109L35.5607 51.8465H33.9428L32.3114 45.2109L32.306 51.8465H30.7557ZM48.5766 51.8465H46.7642L46.0458 49.9287H42.7128L42.0213 51.8465H40.2414L43.4664 43.4191H45.2436L48.5766 51.8465ZM45.5002 48.504L44.3469 45.3835L43.226 48.504H45.5002ZM50.1404 51.8465V43.4191H51.8231V47.1533L55.2128 43.4191H57.4681L54.3323 46.7013L57.6302 51.8465H55.4613L53.1763 47.8903L51.8231 49.2986V51.8465H50.1404ZM59.1427 51.8465V43.4191H65.2928V44.8438H60.8254V46.715H64.9795V48.1397H60.8254V50.4246H65.4548V51.8492H59.1427V51.8465ZM67.5265 51.8465V43.4191H71.0593C71.9479 43.4191 72.5935 43.4958 72.9959 43.6465C73.401 43.7972 73.7225 44.0657 73.9628 44.452C74.2032 44.841 74.3275 45.2821 74.3275 45.7807C74.3275 46.4136 74.1465 46.9369 73.7792 47.3479C73.4145 47.7588 72.8689 48.0191 72.1397 48.126C72.5016 48.3397 72.7987 48.5753 73.0337 48.8328C73.2687 49.0903 73.5874 49.5479 73.9844 50.2027L74.9973 51.8465H72.9905L71.7886 50.0054C71.3564 49.3533 71.062 48.9397 70.9 48.7698C70.7406 48.5999 70.5731 48.4821 70.3949 48.4218C70.2139 48.3588 69.933 48.3287 69.5468 48.3287H69.2065V51.8492H67.5265V51.8465ZM69.2092 46.9862H70.4516C71.2565 46.9862 71.7562 46.9506 71.9587 46.8821C72.1586 46.8136 72.3153 46.6931 72.4287 46.526C72.5421 46.3561 72.5989 46.1451 72.5989 45.8931C72.5989 45.6081 72.5232 45.3807 72.3747 45.2054C72.2261 45.0301 72.0155 44.9205 71.7454 44.8766C71.6076 44.8575 71.1998 44.8465 70.5218 44.8465H69.2119V46.9862H69.2092Z" fill="#002B5B"/>
<path fill-rule="evenodd" clip-rule="evenodd" d="M35.4932 13.0027H43.507C44.8061 13.0027 45.9864 13.5397 46.8399 14.4082C47.6961 15.2767 48.2255 16.474 48.2255 17.789V23.326C48.2255 24.6438 47.6961 25.8411 46.8399 26.7068C45.9837 27.5753 44.8034 28.1123 43.507 28.1123H35.4932C34.1941 28.1123 33.0138 27.5726 32.1603 26.7068C31.304 25.8384 30.7747 24.6411 30.7747 23.326V17.789C30.7747 16.4712 31.304 15.274 32.1603 14.4082C33.0138 13.5397 34.1941 13.0027 35.4932 13.0027ZM39.5014 36.9151C41.7378 36.9151 43.8608 36.4329 45.7785 35.5644L43.85 31.1479C43.5097 31.189 43.1612 31.2082 42.8101 31.2082H36.1955C35.7579 31.2082 35.3285 31.1753 34.9071 31.1151L33.0083 35.463C34.98 36.3945 37.1813 36.9151 39.5014 36.9151ZM47.1316 34.8685C51.7854 32.1753 54.9212 27.0959 54.9212 21.274C54.9212 12.6356 48.0176 5.63288 39.5014 5.63288C30.9853 5.63288 24.0817 12.6356 24.0817 21.274C24.0817 27.0082 27.1257 32.0219 31.6633 34.7452L33.4054 30.7589C32.0333 30.3041 30.8017 29.526 29.8023 28.5123C28.1628 26.8493 27.1446 24.5534 27.1446 22.0274V20.5589H28.6625V22.0274C28.6625 24.1288 29.5106 26.0384 30.8746 27.4219C32.2413 28.8082 34.1238 29.6658 36.1928 29.6658H42.8074C44.879 29.6658 46.7616 28.8055 48.1256 27.4219C49.4923 26.0356 50.3377 24.126 50.3377 22.0274V20.5589H51.8556V22.0274C51.8556 24.5534 50.8374 26.8493 49.1979 28.5123C48.1418 29.5836 46.8291 30.3918 45.3652 30.8329L47.1316 34.8685ZM43.507 14.5425H35.4932C34.6127 14.5425 33.8132 14.9068 33.2325 15.4959C32.6518 16.0849 32.2926 16.8959 32.2926 17.789V23.326C32.2926 24.2192 32.6518 25.0301 33.2325 25.6192C33.8132 26.2082 34.6127 26.5726 35.4932 26.5726H43.507C44.3875 26.5726 45.187 26.2082 45.7677 25.6192C46.3484 25.0301 46.7076 24.2192 46.7076 23.326V17.789C46.7076 16.8959 46.3484 16.0849 45.7677 15.4959C45.187 14.9068 44.3875 14.5425 43.507 14.5425ZM39.5014 38.5452C48.9062 38.5452 56.531 30.811 56.531 21.2712C56.531 11.7342 48.9062 4 39.5014 4C30.0967 4 22.4719 11.7342 22.4719 21.274C22.4719 30.8137 30.0967 38.5452 39.5014 38.5452Z" fill="#002B5B"/>
</g>
<defs>
<filter id="filter0_d_45_19" x="0" y="0" width="79" height="56.0027" filterUnits="userSpaceOnUse" color-interpolation-filters="sRGB">
<feFlood flood-opacity="0" result="BackgroundImageFix"/>
<feColorMatrix in="SourceAlpha" type="matrix" values="0 0 0 0 0 0 0 0 0 0 0 0 0 0 0 0 0 0 127 0" result="hardAlpha"/>
<feMorphology radius="4" operator="dilate" in="SourceAlpha" result="effect1_dropShadow_45_19"/>
<feOffset/>
<feComposite in2="hardAlpha" operator="out"/>
<feColorMatrix type="matrix" values="0 0 0 0 1 0 0 0 0 1 0 0 0 0 1 0 0 0 0.01 0"/>
<feBlend mode="normal" in2="BackgroundImageFix" result="effect1_dropShadow_45_19"/>
<feBlend mode="normal" in="SourceGraphic" in2="effect1_dropShadow_45_19" result="shape"/>
</filter>
</defs>
</svg>
